0
SECTION
2
HEADER
9
$INSUNITS
70
4
9
$ACADVER
1
AC1014
9
$HANDSEED
5
FFFF
0
ENDSEC
0
SECTION
2
TABLES
0
TABLE
2
VPORT
5
8
100
AcDbSymbolTable
0
ENDTAB
0
TABLE
2
LTYPE
5
5
100
AcDbSymbolTable
0
LTYPE
5
14
100
AcDbSymbolTableRecord
100
AcDbLinetypeTableRecord
2
BYBLOCK
70
0
0
LTYPE
5
15
100
AcDbSymbolTableRecord
100
AcDbLinetypeTableRecord
2
BYLAYER
70
0
0
ENDTAB
0
TABLE
2
LAYER
5
2
100
AcDbSymbolTable
70
2
0
LAYER
5
50
100
AcDbSymbolTableRecord
100
AcDbLayerTableRecord
2
0
70
0
6
CONTINUOUS
0
ENDTAB
0
TABLE
2
STYLE
5
3
100
AcDbSymbolTable
70
1
0
STYLE
5
11
100
AcDbSymbolTableRecord
100
AcDbTextStyleTableRecord
2
STANDARD
70
0
0
ENDTAB
0
TABLE
2
VIEW
5
6
100
AcDbSymbolTable
70
0
0
ENDTAB
0
TABLE
2
UCS
5
7
100
AcDbSymbolTable
70
0
0
ENDTAB
0
TABLE
2
APPID
5
9
100
AcDbSymbolTable
70
2
0
APPID
5
12
100
AcDbSymbolTableRecord
100
AcDbRegAppTableRecord
2
ACAD
70
0
0
ENDTAB
0
TABLE
2
DIMSTYLE
5
A
100
AcDbSymbolTable
70
1
0
ENDTAB
0
TABLE
2
BLOCK_RECORD
5
1
100
AcDbSymbolTable
70
1
0
BLOCK_RECORD
5
1F
100
AcDbSymbolTableRecord
100
AcDbBlockTableRecord
2
*MODEL_SPACE
0
BLOCK_RECORD
5
1B
100
AcDbSymbolTableRecord
100
AcDbBlockTableRecord
2
*PAPER_SPACE
0
ENDTAB
0
ENDSEC
0
SECTION
2
BLOCKS
0
BLOCK
5
20
100
AcDbEntity
100
AcDbBlockBegin
2
*MODEL_SPACE
0
ENDBLK
5
21
100
AcDbEntity
100
AcDbBlockEnd
0
BLOCK
5
1C
100
AcDbEntity
100
AcDbBlockBegin
2
*PAPER_SPACE
0
ENDBLK
5
1D
100
AcDbEntity
100
AcDbBlockEnd
0
ENDSEC
0
SECTION
2
ENTITIES
0
CIRCLE
5
100
100
AcDbEntity
8
0
100
AcDbCircle
10
-97.008292840243868
20
-42.7816299965044
30
0
40
2.0000000000000084
210
-9.8607613152626498e-32
220
4.9303806576313413e-32
230
1
0
CIRCLE
5
101
100
AcDbEntity
8
0
100
AcDbCircle
10
11.454168027843071
20
105.40246097566295
30
0
40
2.0000000000000151
210
-1.3684555315671727e-48
220
4.9303806576313238e-32
230
1
0
CIRCLE
5
102
100
AcDbEntity
8
0
100
AcDbCircle
10
10.917256331818958
20
-105.4594247050569
30
0
40
2.0000000000000151
210
-1.3684555315671727e-48
220
4.9303806576313238e-32
230
1
0
CIRCLE
5
103
100
AcDbEntity
8
0
100
AcDbCircle
10
-96.789169028981647
20
43.275091029545905
30
0
40
2.0000000000000084
210
-9.8607613152626498e-32
220
4.9303806576313413e-32
230
1
0
CIRCLE
5
104
100
AcDbEntity
8
0
100
AcDbCircle
10
85.871912697162131
20
62.184333675510636
30
0
40
2.0000000000000084
210
-9.8607613152626498e-32
220
4.9303806576313413e-32
230
1
0
CIRCLE
5
105
100
AcDbEntity
8
0
100
AcDbCircle
10
85.554124812400602
20
-62.620830979159066
30
0
40
2.0000000000000084
210
-9.8607613152626498e-32
220
4.9303806576313413e-32
230
1
0
LWPOLYLINE
5
106
100
AcDbEntity
8
0
100
AcDbPolyline
90
12
70
1
43
0.0
10
-105.03485069744238
20
67.044078218989597
42
0.14135127371952452
10
-107.51479093755975
20
58.52857004246296
10
-107.81043623278811
20
-57.580512523934431
42
0.14135127371951919
10
-105.37389346719969
20
-66.108539403025731
42
0.2476405666462427
10
-4.4873243924060358
20
-124.69844433127395
42
0.14135127371953923
10
4.1272921346592
20
-122.58838149081956
10
104.82852989487876
20
-64.789876543797817
42
0.14135127371952652
10
110.99574643353419
20
-58.415755171845298
42
0.24764056664624351
10
111.29280796931536
20
58.249529011704134
42
0.14135127371950909
10
105.15813168236815
20
64.654974347775877
10
4.7525392173768743
20
122.9655519671515
42
0.14135127371953471
10
-3.8512200868669844
20
125.11945747429037
42
0.24764056664624406
0
CIRCLE
5
107
100
AcDbEntity
8
0
100
AcDbCircle
10
-28.950086999316966
20
83.389697806253707
30
0
40
2.0000000000000173
210
-9.8607613152626519e-32
220
9.8607613152626629e-32
230
1
0
CIRCLE
5
108
100
AcDbEntity
8
0
100
AcDbCircle
10
-65.353781821313987
20
-85.1621120982241
30
0
40
2.0000000000000173
210
-9.8607613152626519e-32
220
9.8607613152626629e-32
230
1
0
CIRCLE
5
109
100
AcDbEntity
8
0
100
AcDbCircle
10
-64.918227464317638
20
85.893600997348869
30
0
40
2.0000000000000173
210
-9.8607613152626519e-32
220
9.8607613152626629e-32
230
1
0
CIRCLE
5
110
100
AcDbEntity
8
0
100
AcDbCircle
10
107.48656859748669
20
15.76907551586449
30
0
40
2.0000000000000084
210
-1.4368783081455505e-47
220
7.3955709864469879e-32
230
1
0
CIRCLE
5
111
100
AcDbEntity
8
0
100
AcDbCircle
10
-55.353781821313888
20
-67.841604022535236
30
0
40
2.0000000000000173
210
-9.8607613152626519e-32
220
9.8607613152626629e-32
230
1
0
CIRCLE
5
112
100
AcDbEntity
8
0
100
AcDbCircle
10
87.486568597486624
20
-14.230535476619776
30
0
40
2.0000000000000084
210
-1.4368783081455505e-47
220
7.3955709864469879e-32
230
1
0
CIRCLE
5
113
100
AcDbEntity
8
0
100
AcDbCircle
10
-55.006562007911668
20
68.5223924072626
30
0
40
2.0000000000000173
210
-9.8607613152626519e-32
220
9.8607613152626629e-32
230
1
0
CIRCLE
5
114
100
AcDbEntity
8
0
100
AcDbCircle
10
-39.373356598171618
20
-100.16191759446622
30
0
40
2.0000000000000173
210
-9.8607613152626519e-32
220
9.8607613152626629e-32
230
1
0
CIRCLE
5
115
100
AcDbEntity
8
0
100
AcDbCircle
10
-38.861752455722957
20
100.76090639634003
30
0
40
2.0000000000000173
210
-9.8607613152626519e-32
220
9.8607613152626629e-32
230
1
0
CIRCLE
5
116
100
AcDbEntity
8
0
100
AcDbCircle
10
107.48656859748667
20
-14.230535476619812
30
0
40
2.0000000000000084
210
-1.4368783081455505e-47
220
7.3955709864469879e-32
230
1
0
CIRCLE
5
117
100
AcDbEntity
8
0
100
AcDbCircle
10
-29.373356598171512
20
-82.841409518777382
30
0
40
2.0000000000000173
210
-9.8607613152626519e-32
220
9.8607613152626629e-32
230
1
0
CIRCLE
5
118
100
AcDbEntity
8
0
100
AcDbCircle
10
87.486568597486624
20
15.769075515864506
30
0
40
2.0000000000000084
210
-1.4368783081455505e-47
220
7.3955709864469879e-32
230
1
0
CIRCLE
5
119
100
AcDbEntity
8
0
100
AcDbCircle
10
0.59021095982250027
20
0.19838763313975949
30
0
40
7.5000000000000577
210
-1.2842274246029379e-32
220
7.2832156454051366e-32
230
1
0
ENDSEC
0
SECTION
2
OBJECTS
0
DICTIONARY
5
C
100
AcDbDictionary
3
ACAD_GROUP
350
D
3
ACAD_MLINESTYLE
350
17
0
DICTIONARY
5
D
100
AcDbDictionary
0
DICTIONARY
5
1A
330
C
100
AcDbDictionary
0
DICTIONARY
5
17
100
AcDbDictionary
0
ENDSEC
0
EOF
