0
SECTION
2
HEADER
9
$INSUNITS
70
4
9
$ACADVER
1
AC1014
9
$HANDSEED
5
FFFF
0
ENDSEC
0
SECTION
2
TABLES
0
TABLE
2
VPORT
5
8
100
AcDbSymbolTable
0
ENDTAB
0
TABLE
2
LTYPE
5
5
100
AcDbSymbolTable
0
LTYPE
5
14
100
AcDbSymbolTableRecord
100
AcDbLinetypeTableRecord
2
BYBLOCK
70
0
0
LTYPE
5
15
100
AcDbSymbolTableRecord
100
AcDbLinetypeTableRecord
2
BYLAYER
70
0
0
ENDTAB
0
TABLE
2
LAYER
5
2
100
AcDbSymbolTable
70
2
0
LAYER
5
50
100
AcDbSymbolTableRecord
100
AcDbLayerTableRecord
2
0
70
0
6
CONTINUOUS
0
ENDTAB
0
TABLE
2
STYLE
5
3
100
AcDbSymbolTable
70
1
0
STYLE
5
11
100
AcDbSymbolTableRecord
100
AcDbTextStyleTableRecord
2
STANDARD
70
0
0
ENDTAB
0
TABLE
2
VIEW
5
6
100
AcDbSymbolTable
70
0
0
ENDTAB
0
TABLE
2
UCS
5
7
100
AcDbSymbolTable
70
0
0
ENDTAB
0
TABLE
2
APPID
5
9
100
AcDbSymbolTable
70
2
0
APPID
5
12
100
AcDbSymbolTableRecord
100
AcDbRegAppTableRecord
2
ACAD
70
0
0
ENDTAB
0
TABLE
2
DIMSTYLE
5
A
100
AcDbSymbolTable
70
1
0
ENDTAB
0
TABLE
2
BLOCK_RECORD
5
1
100
AcDbSymbolTable
70
1
0
BLOCK_RECORD
5
1F
100
AcDbSymbolTableRecord
100
AcDbBlockTableRecord
2
*MODEL_SPACE
0
BLOCK_RECORD
5
1B
100
AcDbSymbolTableRecord
100
AcDbBlockTableRecord
2
*PAPER_SPACE
0
ENDTAB
0
ENDSEC
0
SECTION
2
BLOCKS
0
BLOCK
5
20
100
AcDbEntity
100
AcDbBlockBegin
2
*MODEL_SPACE
0
ENDBLK
5
21
100
AcDbEntity
100
AcDbBlockEnd
0
BLOCK
5
1C
100
AcDbEntity
100
AcDbBlockBegin
2
*PAPER_SPACE
0
ENDBLK
5
1D
100
AcDbEntity
100
AcDbBlockEnd
0
ENDSEC
0
SECTION
2
ENTITIES
0
CIRCLE
5
100
100
AcDbEntity
8
0
100
AcDbCircle
10
10.917256331819152
20
-105.45942470505651
30
0
40
2.0000000000000013
210
6.1629762788190713e-33
220
9.2444637300135321e-32
230
1
0
CIRCLE
5
101
100
AcDbEntity
8
0
100
AcDbCircle
10
85.871912697161491
20
62.184333675510402
30
0
40
1.9999999999999942
210
6.1629763397230619e-33
220
1.0477058894421362e-31
230
1
0
CIRCLE
5
102
100
AcDbEntity
8
0
100
AcDbCircle
10
-97.008292840243087
20
-42.781629996504265
30
0
40
1.9999999999999942
210
6.1629763397230619e-33
220
1.0477058894421362e-31
230
1
0
CIRCLE
5
103
100
AcDbEntity
8
0
100
AcDbCircle
10
85.554124812400175
20
-62.620830979158811
30
0
40
1.9999999999999942
210
6.1629763397230619e-33
220
1.0477058894421362e-31
230
1
0
CIRCLE
5
104
100
AcDbEntity
8
0
100
AcDbCircle
10
11.454168027842854
20
105.40246097566251
30
0
40
2.0000000000000013
210
6.1629762788190713e-33
220
9.2444637300135321e-32
230
1
0
CIRCLE
5
105
100
AcDbEntity
8
0
100
AcDbCircle
10
-96.789169028981036
20
43.275091029545713
30
0
40
1.9999999999999942
210
6.1629763397230619e-33
220
1.0477058894421362e-31
230
1
0
CIRCLE
5
106
100
AcDbEntity
8
0
100
AcDbCircle
10
31.618696392549413
20
-59.96898546618786
30
0
40
1.0000000000000016
210
1.2325952222666205e-32
220
1.1709654055783994e-31
230
1
0
LWPOLYLINE
5
107
100
AcDbEntity
8
0
100
AcDbPolyline
90
16
70
1
43
0.0
10
-74.752753309664868
20
-29.000000432133682
42
0.41421356237309503
10
-73.752753309664868
20
-28.000000432133689
10
-73.752753309664868
20
-17.778637777361755
42
-0.41421356237309437
10
-72.752753309664868
20
-16.778637777361748
10
-47.408810886817676
20
-16.778637777361755
42
-0.41421356237309825
10
-46.408810886817669
20
-17.778637777361755
10
-46.408810886817697
20
-28.000000432133682
42
0.41421356237309115
10
-45.40881088681769
20
-29.000000432133692
10
-42.000000610947687
20
-29.000000432133682
42
-0.41421356237309503
10
-41.00000061094768
20
-30.000000432133689
10
-41.000000610947708
20
-44.000000670552268
42
-0.41421356237309503
10
-42.000000610947708
20
-45.000000670552254
10
-78.500001184642471
20
-45.000000670552268
42
-0.41421356237308721
10
-79.500001184642457
20
-44.000000670552275
10
-79.500001184642443
20
-30.000000432133685
42
-0.41421356237309764
10
-78.500001184642429
20
-29.000000432133682
0
CIRCLE
5
108
100
AcDbEntity
8
0
100
AcDbCircle
10
-74.648397747030188
20
43.285793301790591
30
0
40
1.5000000000000049
210
3.0790249460262009e-48
220
1.1093356479670479e-31
230
1
0
CIRCLE
5
109
100
AcDbEntity
8
0
100
AcDbCircle
10
-43.129397747030289
20
-48.723206698209424
30
0
40
1.5000000000000049
210
3.0790249460262009e-48
220
1.1093356479670479e-31
230
1
0
CIRCLE
5
110
100
AcDbEntity
8
0
100
AcDbCircle
10
47.981065928281922
20
-37.392590332225076
30
0
40
1.044999999999999
210
1.8488927922897389e-32
220
9.2444637239231299e-32
230
1
0
CIRCLE
5
111
100
AcDbEntity
8
0
100
AcDbCircle
10
63.941065928281724
20
-37.39259033222497
30
0
40
1.044999999999999
210
1.8488927922897389e-32
220
9.2444637239231299e-32
230
1
0
CIRCLE
5
112
100
AcDbEntity
8
0
100
AcDbCircle
10
63.941065928281375
20
38.71740966777503
30
0
40
1.044999999999999
210
1.8488927922897389e-32
220
9.2444637239231299e-32
230
1
0
LWPOLYLINE
5
113
100
AcDbEntity
8
0
100
AcDbPolyline
90
8
70
1
43
0.0
10
63.591862201768031
20
-35.804935214958086
10
48.591861963349444
20
-35.804935140841309
42
-0.41421356237309503
10
48.091861965820002
20
-35.304935138370752
10
48.091862316639514
20
35.695065934512854
42
-0.41421356237309503
10
48.591862319110071
20
36.195065932042297
10
63.591862557528664
20
36.195065857925513
42
-0.41421356237311063
10
64.091862555058128
20
35.695065855454949
10
64.091862204238581
20
-35.30493521742865
42
-0.41421356237309503
0
CIRCLE
5
114
100
AcDbEntity
8
0
100
AcDbCircle
10
47.981065928281559
20
38.71740966777493
30
0
40
1.044999999999999
210
1.8488927922897389e-32
220
9.2444637239231299e-32
230
1
0
CIRCLE
5
115
100
AcDbEntity
8
0
100
AcDbCircle
10
0.091861425973976812
20
0.19506563524475262
30
0
40
7.500000000000008
210
8.2245426771465045e-33
220
9.532095364957402e-32
230
1
0
LWPOLYLINE
5
116
100
AcDbEntity
8
0
100
AcDbPolyline
90
36
70
1
43
0.0
10
-80.426228594571455
20
92.649504203065874
42
0.47679791244860453
10
-83.495680066012099
20
93.136568244819031
42
0.068634127759779354
10
-105.53320023129064
20
67.040756221093716
42
0.14135127371952372
10
-108.01314047140789
20
58.5252480445671
10
-108.30878576663558
20
-57.5838345218298
42
0.14135127371952258
10
-105.87224300104708
20
-66.111861400921057
42
0.06863412775977884
10
-83.967901799010747
20
-92.319561351840562
42
0.47679791244860542
10
-80.896009750000658
20
-91.848134840572243
10
-66.528950985649203
20
-67.253761629093432
42
-0.41421356237310103
10
-63.793207627713812
20
-66.535633312208091
10
-24.589665247069949
20
-89.436790105688601
42
-0.41421356237309559
10
-23.871536930184618
20
-92.172533463623978
10
-37.96987851788046
20
-116.30690086323811
42
0.48293430197178971
10
-36.833752503339149
20
-119.22645267675517
42
0.064902866010171728
10
-4.9856739262537531
20
-124.70176632916845
42
0.14135127371953327
10
3.6289426008113446
20
-122.59170348871406
10
104.33018036102993
20
-64.793198541691964
42
0.14135127371952319
10
110.49739689968526
20
-58.419077169739467
42
0.068634127759779562
10
122.24176023092367
20
-26.345511260153827
42
0.47679791244857117
10
120.29754687164272
20
-23.920887963662061
10
91.814665498170797
20
-23.77583670180934
42
-0.41421356237309825
10
89.824876453603423
20
-21.765677614045444
10
90.056088822486231
20
23.636164402672289
42
-0.4142135623730957
10
92.066247910250141
20
25.625953447239628
10
120.01639397643105
20
25.483615180871546
42
0.48293430197178239
10
121.97673700733105
20
27.927305078123219
42
0.064902866010172158
10
110.79445843546594
20
58.246207013809048
42
0.14135127371952233
10
104.65978214851845
20
64.651652349881203
10
4.2541896835275859
20
122.962229969256
42
0.14135127371952472
10
-4.3495696207162178
20
125.11613547639482
42
0.064902866010172047
10
-36.225118320307843
20
119.80307950600574
42
0.48293430197179948
10
-37.376097451936268
20
116.88935128407348
10
-23.400843202881191
20
92.683500876017547
42
-0.4142135623730972
10
-24.132894010450041
20
89.951450068448651
10
-63.452552430289835
20
67.250234695309601
42
-0.4142135623730957
10
-66.18460323785871
20
67.982285502878469
0
ENDSEC
0
SECTION
2
OBJECTS
0
DICTIONARY
5
C
100
AcDbDictionary
3
ACAD_GROUP
350
D
3
ACAD_MLINESTYLE
350
17
0
DICTIONARY
5
D
100
AcDbDictionary
0
DICTIONARY
5
1A
330
C
100
AcDbDictionary
0
DICTIONARY
5
17
100
AcDbDictionary
0
ENDSEC
0
EOF
